<svg width="64" height="64" viewBox="0 0 64 64" fill="none" xmlns="http://www.w3.org/2000/svg">
<g clip-path="url(#clip0_403_4705)">
<path d="M31.9994 62.7048C48.9575 62.7048 62.7048 48.9575 62.7048 31.9994C62.7048 15.0413 48.9575 1.29407 31.9994 1.29407C15.0413 1.29407 1.29407 15.0413 1.29407 31.9994C1.29407 48.9575 15.0413 62.7048 31.9994 62.7048Z" stroke="#FFD66F" stroke-width="2.50725" stroke-miterlimit="10"/>
<path d="M17.2393 15.7055C17.2393 18.6604 16.1725 24.7695 17.2393 27.5253C17.6815 28.6652 20.5341 31.1409 20.5341 31.1409V47.0095C20.5341 47.0095 20.6207 49.5245 23.049 49.5245C25.4774 49.5245 26.0839 47.0961 26.0839 47.0961V31.3141C26.0839 31.3141 28.9399 28.7013 29.3787 27.5253C30.414 24.7572 29.3787 15.7055 29.3787 15.7055" stroke="#FFD66F" stroke-width="2.50725" stroke-miterlimit="10" stroke-linecap="round"/>
<path d="M21.2283 15.7055L21.3071 22.9083" stroke="#FFD66F" stroke-width="2.50725" stroke-miterlimit="10" stroke-linecap="round"/>
<path d="M25.2962 15.7055V22.9083" stroke="#FFD66F" stroke-width="2.50725" stroke-miterlimit="10" stroke-linecap="round"/>
<path d="M36.7819 29.6577L36.0561 28.6765C35.3247 27.6863 34.9297 26.4878 34.9297 25.2568V21.6447C34.9297 20.4339 35.3123 19.2534 36.0212 18.2722L36.1551 18.0877C37.2376 16.5922 38.9717 15.7066 40.8171 15.7066H40.9026C42.8077 15.7066 44.589 16.6496 45.6603 18.2249L45.8178 18.4556C46.5178 19.4853 46.8655 20.7141 46.8081 21.9575L46.6449 25.4728C46.583 26.8007 46.0643 28.0655 45.1753 29.0535C44.2177 30.118 43.6922 31.5009 43.7001 32.9323L43.7743 46.8373C43.7743 46.8373 43.6877 49.5256 40.9128 49.5256C38.1378 49.5256 38.1378 47.0972 38.1378 47.0972L37.9083 32.9852C37.8892 31.7856 37.4953 30.6232 36.7819 29.6589V29.6577Z" stroke="#FFD66F" stroke-width="2.50725" stroke-miterlimit="10"/>
<path d="M14.5509 30.8809C14.5509 30.8809 14.1177 38.3381 17.3258 41.2863" stroke="#FFD66F" stroke-width="2.50725" stroke-miterlimit="10" stroke-linecap="round"/>
<path d="M29.4653 49.5245C29.4653 49.5245 32.9334 50.2176 34.9285 49.5245" stroke="#FFD66F" stroke-width="2.50725" stroke-miterlimit="10" stroke-linecap="round"/>
<path d="M46.8126 42.0673C46.8126 42.0673 50.3639 37.8182 49.4963 29.3202" stroke="#FFD66F" stroke-width="2.50725" stroke-miterlimit="10" stroke-linecap="round"/>
</g>
<defs>
<clipPath id="clip0_403_4705">
<rect width="64" height="64" fill="white"/>
</clipPath>
</defs>
</svg>
