<svg width="76" height="65" viewBox="0 0 76 65" fill="none" xmlns="http://www.w3.org/2000/svg">
<path d="M17 25.3333H59M26.3333 11V15.7778M49.6667 11V15.7778M24 32.5H28.6667M35.6667 32.5H40.3333M47.3333 32.5H52M24 39.6667H28.6667M35.6667 39.6667H40.3333M47.3333 39.6667H52M24 46.8333H28.6667M35.6667 46.8333H40.3333M47.3333 46.8333H52M24.4667 54H51.5333C54.1469 54 55.4538 54 56.452 53.4792C57.33 53.0213 58.044 52.2903 58.4913 51.3913C59 50.3694 59 49.0313 59 46.3556V23.4222C59 20.7464 59 19.4085 58.4913 18.3865C58.044 17.4875 57.33 16.7566 56.452 16.2985C55.4538 15.7778 54.1469 15.7778 51.5333 15.7778H24.4667C21.8531 15.7778 20.5463 15.7778 19.548 16.2985C18.6699 16.7566 17.956 17.4875 17.5086 18.3865C17 19.4085 17 20.7464 17 23.4222V46.3556C17 49.0313 17 50.3694 17.5086 51.3913C17.956 52.2903 18.6699 53.0213 19.548 53.4792C20.5463 54 21.8531 54 24.4667 54Z" stroke="#528540" stroke-width="4" stroke-linecap="round"/>
</svg>
