<svg width="76" height="65" viewBox="0 0 76 65" fill="none" xmlns="http://www.w3.org/2000/svg">
<g clip-path="url(#clip0_324_4763)">
<path d="M39.8973 12.3809C26.436 12.3809 15.4844 21.7474 15.4844 33.2603C15.4844 44.7733 26.436 54.1398 39.8973 54.1398C53.3586 54.1398 64.3102 44.7733 64.3102 33.2603C64.3102 21.7474 53.3587 12.3809 39.8973 12.3809ZM39.8973 52.2988C27.6229 52.2988 17.6369 43.7582 17.6369 33.2603C17.6369 22.7625 27.6229 14.2218 39.8973 14.2218C52.1717 14.2218 62.1576 22.7625 62.1576 33.2603C62.1576 43.7582 52.1718 52.2988 39.8973 52.2988Z" fill="#528540" stroke="#528540" stroke-width="2"/>
<path d="M26.8841 37.8949C26.1679 36.4258 25.8049 34.8665 25.8049 33.26C25.8049 26.6141 32.1267 21.2072 39.8974 21.2072C42.5994 21.2072 45.2241 21.8628 47.4879 23.103C47.9882 23.377 48.6539 23.2525 48.9748 22.8243C49.2953 22.3963 49.1495 21.827 48.649 21.5528C46.038 20.1222 43.0117 19.3662 39.8974 19.3662C30.9399 19.3662 23.6523 25.599 23.6523 33.26C23.6523 35.1109 24.0712 36.9087 24.8975 38.6034C25.0699 38.9569 25.4698 39.1699 25.8913 39.1699C26.0293 39.1699 26.1696 39.147 26.305 39.0987C26.8536 38.9031 27.113 38.3641 26.8841 37.8949Z" fill="#528540" stroke="#528540" stroke-width="2"/>
<path d="M51.1964 24.5555C50.728 24.8684 50.6447 25.4469 51.0107 25.8475C52.9599 27.9818 53.9902 30.545 53.9902 33.2601C53.9902 39.906 47.6682 45.3129 39.8976 45.3129C38.0212 45.3129 36.1995 45.0029 34.483 44.3913C33.9344 44.1958 33.3043 44.4178 33.0757 44.8872C32.8471 45.3564 33.1067 45.8953 33.6555 46.0908C35.6355 46.7962 37.7358 47.1539 39.8978 47.1539C48.8553 47.1539 56.1429 40.9211 56.1429 33.2601C56.1429 30.1304 54.9548 27.1753 52.7073 24.7142C52.3411 24.3137 51.6646 24.2425 51.1964 24.5555Z" fill="#528540" stroke="#528540" stroke-width="2"/>
<path d="M74.2325 13.8486C73.6382 13.8486 73.0686 14.2608 73.0686 14.7691V22.7527C73.0686 23.565 72.1115 24.2678 71.314 24.6078V14.7691C71.314 14.2608 70.8321 13.8486 70.2377 13.8486C69.6433 13.8486 69.1614 14.2608 69.1614 14.7691V24.6078C68.364 24.2678 67.2488 23.565 67.2488 22.7527V14.7691C67.2488 14.2608 66.6792 13.8486 66.0849 13.8486C65.4905 13.8486 64.9209 14.2608 64.9209 14.7691V22.7527C64.9209 24.5939 67.1556 26.1414 69.1614 26.5566V50.6952C69.1614 51.2037 69.6433 51.6157 70.2377 51.6157C70.8321 51.6157 71.314 51.2037 71.314 50.6952V26.5567C73.3198 26.1415 75.3965 24.594 75.3965 22.7527V14.7691C75.3965 14.2608 74.8269 13.8486 74.2325 13.8486Z" fill="#528540" stroke="#528540" stroke-width="2"/>
<path d="M8.39292 14.377C4.95735 14.377 2.64941 18.981 2.64941 23.281C2.64941 25.675 4.6626 27.6733 7.31665 28.1056V51.2235C7.31665 51.732 7.79853 52.144 8.39292 52.144C8.9873 52.144 9.46918 51.732 9.46918 51.2235V28.1056C12.1234 27.6733 14.1366 25.675 14.1366 23.281C14.1366 18.981 11.8286 14.377 8.39292 14.377ZM8.39292 26.3524C6.41288 26.3524 4.80194 24.9746 4.80194 23.281C4.80194 19.4772 6.77652 16.2179 8.39292 16.2179C10.0093 16.2179 11.984 19.4772 11.984 23.281C11.984 24.9746 10.3731 26.3524 8.39292 26.3524Z" fill="#528540" stroke="#528540" stroke-width="2"/>
</g>
<defs>
<clipPath id="clip0_324_4763">
<rect width="76" height="65" fill="white"/>
</clipPath>
</defs>
</svg>
